<svg width="214" height="22" viewBox="0 0 214 22" fill="none" xmlns="http://www.w3.org/2000/svg">
<g filter="url(#filter0_d_1_2491)">
<path fill-rule="evenodd" clip-rule="evenodd" d="M203.045 -0.000183105L209.683 6.63786L203.045 13.2759L202.098 12.3283L207.788 6.63786L202.098 0.947384L203.045 -0.000183105Z" fill="white"/>
<path fill-rule="evenodd" clip-rule="evenodd" d="M208.736 7.30776L168.228 7.30776L168.228 5.9677L208.736 5.9677L208.736 7.30776Z" fill="white"/>
<path fill-rule="evenodd" clip-rule="evenodd" d="M10.6381 13.276L4.00002 6.638L10.6381 -3.82298e-05L11.5856 0.94753L5.89516 6.638L11.5856 12.3285L10.6381 13.276Z" fill="white"/>
<path fill-rule="evenodd" clip-rule="evenodd" d="M4.94758 5.9681L45.4556 5.9681L45.4556 7.30817L4.94758 7.30816L4.94758 5.9681Z" fill="white"/>
<rect x="129.164" y="1.45636" width="9.56667" height="9.56667" rx="4.78333" fill="white" fill-opacity="0.3"/>
<rect x="102.058" y="1.45636" width="9.56667" height="9.56667" rx="4.78333" fill="white" fill-opacity="0.3"/>
<rect x="74.9528" y="1.45621" width="9.56667" height="9.56667" rx="4.78333" fill="white"/>
</g>
<defs>
<filter id="filter0_d_1_2491" x="0" y="-0.000183105" width="213.683" height="21.2762" filterUnits="userSpaceOnUse" color-interpolation-filters="sRGB">
<feFlood flood-opacity="0" result="BackgroundImageFix"/>
<feColorMatrix in="SourceAlpha" type="matrix" values="0 0 0 0 0 0 0 0 0 0 0 0 0 0 0 0 0 0 127 0" result="hardAlpha"/>
<feOffset dy="4"/>
<feGaussianBlur stdDeviation="2"/>
<feComposite in2="hardAlpha" operator="out"/>
<feColorMatrix type="matrix" values="0 0 0 0 0 0 0 0 0 0 0 0 0 0 0 0 0 0 0.25 0"/>
<feBlend mode="normal" in2="BackgroundImageFix" result="effect1_dropShadow_1_2491"/>
<feBlend mode="normal" in="SourceGraphic" in2="effect1_dropShadow_1_2491" result="shape"/>
</filter>
</defs>
</svg>
